# xmcd CD database file
#
# Track frame offsets:
#	150
#	17993
#	33791
#	49625
#	68367
#	87728
#	103840
#	115467
#	122290
#	141182
#
# Disc length: 2167 seconds
#
# Revision: 4
# Processed by: cddbd v1.5PL3 Copyright (c) Steve Scherf et al.
# Submitted via: CDex 1.51
#
DISCID=8108750a
DTITLE=APOPLEXY - Life, thoughts and destiny
DYEAR=2000
DGENRE=Death Metal
TTITLE0=Life, thoughts and destiny
TTITLE1=Beerfly
TTITLE2=Endanger your mind
TTITLE3=That is not dead...
TTITLE4=The exemplary father
TTITLE5=Distorted reincarnation
TTITLE6=Silence...
TTITLE7=Vaginal succion
TTITLE8=Summoning
TTITLE9=Of flesh and steel
EXTD=YEAR: 2000
EXTT0=
EXTT1=
EXTT2=
EXTT3=
EXTT4=
EXTT5=
EXTT6=
EXTT7=
EXTT8=
EXTT9=
PLAYORDER=
